<svg xmlns="http://www.w3.org/2000/svg" viewBox="0 0 78 78">
	<rect x="16.444444444444443" y="0" rx="8" ry="8" width="16" height="20" fill="currentcolor" />
	<rect x="45.333333333333336" y="0" rx="8" ry="8" width="16" height="20" fill="currentcolor" />
	<rect x="0" y="16.444444444444443" rx="8" ry="8" width="20" height="16" fill="currentcolor" />
	<rect x="28.88888888888889" y="16.444444444444443" rx="8" ry="8" width="20" height="16" fill="currentcolor" />
	<rect x="57.77777777777778" y="16.444444444444443" rx="8" ry="8" width="20" height="16" fill="currentcolor" />
	<rect x="16.444444444444443" y="28.88888888888889" rx="8" ry="8" width="16" height="20" fill="currentcolor" />
	<rect x="45.333333333333336" y="28.88888888888889" rx="8" ry="8" width="16" height="20" fill="currentcolor" />
	<rect x="0" y="45.333333333333336" rx="8" ry="8" width="20" height="16" fill="currentcolor" />
	<rect x="28.88888888888889" y="45.333333333333336" rx="8" ry="8" width="20" height="16" fill="currentcolor" />
	<rect x="57.77777777777778" y="45.333333333333336" rx="8" ry="8" width="20" height="16" fill="currentcolor" />
	<rect x="16.444444444444443" y="57.77777777777778" rx="8" ry="8" width="16" height="20" fill="currentcolor" />
	<rect x="45.333333333333336" y="57.77777777777778" rx="8" ry="8" width="16" height="20" fill="currentcolor" />
</svg>
