<svg xmlns="http://www.w3.org/2000/svg" viewBox="0 0 85 66">
	<!-- <rect x="0" y="0" rx="8" ry="8" width="20" height="16" fill="currentcolor" />
	<rect x="21.5" y="0" rx="8" ry="8" width="20" height="16" fill="currentcolor" />
	<rect x="43" y="0" rx="8" ry="8" width="20" height="16" fill="currentcolor" />
	<rect x="64.5" y="0" rx="8" ry="8" width="20" height="16" fill="currentcolor" />
	<rect x="0" y="19" rx="8" ry="8" width="20" height="16" fill="currentcolor" />
	<rect x="21.5" y="19" rx="8" ry="8" width="20" height="16" fill="currentcolor" />
	<rect x="43" y="19" rx="8" ry="8" width="20" height="16" fill="currentcolor" />
	<rect x="64.5" y="19" rx="8" ry="8" width="20" height="16" fill="currentcolor" />
	<rect x="0" y="38" rx="8" ry="8" width="20" height="16" fill="currentcolor" />
	<rect x="21.5" y="38" rx="8" ry="8" width="20" height="16" fill="currentcolor" />
	<rect x="43" y="38" rx="8" ry="8" width="20" height="16" fill="currentcolor" />
	<rect x="64.5" y="38" rx="8" ry="8" width="20" height="16" fill="currentcolor" />
	<rect x="0" y="57" rx="8" ry="8" width="20" height="16" fill="currentcolor" />
	<rect x="21.5" y="57" rx="8" ry="8" width="20" height="16" fill="currentcolor" />
	<rect x="43" y="57" rx="8" ry="8" width="20" height="16" fill="currentcolor" />
	<rect x="64.5" y="57" rx="8" ry="8" width="20" height="16" fill="currentcolor" /> -->
	<rect x="0" y="0" rx="8" ry="8" width="20" height="16" fill="currentcolor" />
	<rect x="21.5" y="0" rx="8" ry="8" width="20" height="16" fill="currentcolor" />
	<rect x="43" y="0" rx="8" ry="8" width="20" height="16" fill="currentcolor" />
	<rect x="64.5" y="0" rx="8" ry="8" width="20" height="16" fill="currentcolor" />
	<rect x="0" y="18" rx="8" ry="8" width="20" height="16" fill="currentcolor" />
	<rect x="21.5" y="18" rx="8" ry="8" width="20" height="16" fill="currentcolor" />
	<rect x="43" y="18" rx="8" ry="8" width="20" height="16" fill="currentcolor" />
	<rect x="64.5" y="18" rx="8" ry="8" width="20" height="16" fill="currentcolor" />
	<rect x="0" y="36" rx="8" ry="8" width="20" height="16" fill="currentcolor" />
	<rect x="21.5" y="36" rx="8" ry="8" width="20" height="16" fill="currentcolor" />
	<rect x="43" y="36" rx="8" ry="8" width="20" height="16" fill="currentcolor" />
	<rect x="64.5" y="36" rx="8" ry="8" width="20" height="16" fill="currentcolor" />
	<rect x="0" y="54" rx="8" ry="8" width="20" height="16" fill="currentcolor" />
	<rect x="21.5" y="54" rx="8" ry="8" width="20" height="16" fill="currentcolor" />
	<rect x="43" y="54" rx="8" ry="8" width="20" height="16" fill="currentcolor" />
	<rect x="64.5" y="54" rx="8" ry="8" width="20" height="16" fill="currentcolor" />
</svg>
