<svg xmlns="http://www.w3.org/2000/svg" viewBox="0 0 70 75">
	<rect x="0" y="0" rx="9" ry="9" width="16" height="20" fill="currentcolor" />
	<rect x="18" y="10.5" rx="9" ry="9" width="16" height="20" fill="currentcolor" />
	<rect x="36" y="0" rx="9" ry="9" width="16" height="20" fill="currentcolor" />
	<rect x="54" y="10.5" rx="9" ry="9" width="16" height="20" fill="currentcolor" />
	<rect x="0" y="22" rx="9" ry="9" width="16" height="20" fill="currentcolor" />
	<rect x="18" y="32.5" rx="9" ry="9" width="16" height="20" fill="currentcolor" />
	<rect x="36" y="22" rx="9" ry="9" width="16" height="20" fill="currentcolor" />
	<rect x="54" y="32.5" rx="9" ry="9" width="16" height="20" fill="currentcolor" />
	<rect x="0" y="44" rx="9" ry="9" width="16" height="20" fill="currentcolor" />
	<rect x="18" y="54.5" rx="9" ry="9" width="16" height="20" fill="currentcolor" />
	<rect x="36" y="44" rx="9" ry="9" width="16" height="20" fill="currentcolor" />
	<rect x="54" y="54.5" rx="9" ry="9" width="16" height="20" fill="currentcolor" />
</svg>
